<svg id="Layer_1" data-name="Layer 1" xmlns="http://www.w3.org/2000/svg" viewBox="0 0 720 720"><defs><style>.cls-1{font-size:65.64px;font-family:AktivGroteskEx-Bold, Aktiv Grotesk Ex;font-weight:700;}.cls-1,.cls-2,.cls-3{fill:#fff;}.cls-2{stroke:#fff;stroke-miterlimit:10;stroke-width:0.25px;}</style></defs><title>innodx1951</title><text class="cls-1" transform="translate(253.43 373.68)">x</text><path class="cls-2" d="M550.15,326.21c-.46,2.8-.83,5.15-1.25,7.49-.23,1.28.3,1.72,1.54,1.67a38.37,38.37,0,0,1,17.79,3.5c6.68,3.1,12.44,7.18,15.69,14.18,2.41,5.2,4.13,10.47,4.18,16.3A32.21,32.21,0,0,1,582.16,388a46.82,46.82,0,0,1-13.73,13l-1.82-3.19c3.26-3,6.57-5.67,9.4-8.77,5-5.42,7.86-11.67,7.88-19.31a30.6,30.6,0,0,0-6.33-19.09c-3.35-4.4-8.22-7.16-13.47-9a51.27,51.27,0,0,0-16.67-2.72c-2.24,0-3.13-1.57-2.68-4.41s.91-5.86,1.29-8.79c.3-2.35,1.1-3.16,3.49-3.17h30.57c.41-4.41.8-8.64,1.22-13.11-.71-.05-1.4-.15-2.09-.15-14.56,0-29.12,0-43.68,0-1.95,0-2.55.68-2.85,2.59-.86,5.49-2.05,10.93-3.06,16.41q-1.73,9.39-3.37,18.8a13.35,13.35,0,0,0,0,2h13a28.74,28.74,0,0,1,17,5.41c5.86,4.14,8.7,9.91,9.65,16.87a25.94,25.94,0,0,1-6.79,21.7,23.62,23.62,0,0,1-13.81,7.32C536,402,528.32,398.48,522,392.2a22.13,22.13,0,0,1-6.51-18.15,2.52,2.52,0,0,1,2.75-2.51c7.1,0,14.2-.05,21.29,0,1.64,0,2.63,1,3.39,2.57,1.33,2.79,3.07,5.37,4.54,8.09a2.35,2.35,0,0,1,.08,1.82,13,13,0,0,1-1.65,2.21c-3-2-4.63-4.94-5.81-8.06a3.21,3.21,0,0,0-3.68-2.45c-4.75.15-9.51.05-14.27.05h-2.37c-.64,3.32.51,6.12,1.81,8.61,3.91,7.45,10.33,11.7,18.68,12.07,9,.4,15.59-3.91,19.66-12s2.56-18.56-3.9-24.88a22.81,22.81,0,0,0-15.12-6.44c-5.11-.25-10.24-.05-15.36-.07-3.21,0-4.31-1.61-3.7-4.76,1.42-7.32,2.69-14.66,4-22q1.71-9.27,3.48-18.54c.33-1.78,1.66-2.24,3.25-2.25H582c3.06,0,3.89,1.35,3.41,4.44-.6,3.86-.94,7.78-1.17,11.68-.22,3.72-.89,4.53-4.53,4.53H550.15Z"/><path class="cls-2" d="M475.5,335.36c.53-6.1-1.73-12.36-9.67-16l1.37-3.45c4.68,1.44,8.21,4.24,10.05,8.39a41,41,0,0,1,2.62,10.92c.38,2.7-.89,3.69-3.59,3.7q-12.61,0-25.23,0c-3.54,0-3.75-.18-4.07-3.78a28.41,28.41,0,0,1,4.26-18.53,23.25,23.25,0,0,1,19.52-11,27.57,27.57,0,0,1,18.76,5.88c6,4.69,9.11,11,10.67,18.29a107.54,107.54,0,0,1,2.26,25.37c-.23,9.6-1.75,19-6.08,27.66-4.71,9.43-12.43,15-22.92,16.66a27.55,27.55,0,0,1-14.15-1.1c-7.19-2.62-11.69-7.72-13.78-15-.67-2.36-1-4.83-1.49-7.56h-8.69c-2.12,0-4.24.07-6.36,0-1.48-.07-2.14.34-2,2,.63,6.91,3.72,12.35,9.59,16.08a29.15,29.15,0,0,0,5.69,2.72c2.09.76,1,2.05.78,3.2-.28,1.49-1.18,1-2.15.69-6.88-2.44-12.34-6.51-15.53-13.25a25.34,25.34,0,0,1-2.31-13c.14-1.82,1.46-2.67,3.37-2.66,5.93.05,11.85,0,17.78,0,3.16,0,3.92.86,4.08,4,.3,6,2,11.49,6.69,15.61a17.51,17.51,0,0,0,9.82,4.4c7.26.77,14-.67,19.95-5.05a28,28,0,0,0,9.58-13.27,70.72,70.72,0,0,0,4.05-29.87c-.5-7.57-.94-15.26-3.87-22.44-3.65-8.94-10.25-14.1-19.9-15.25-12.09-1.45-20.76,6.45-23,16.22a47.5,47.5,0,0,0-.82,8,2,2,0,0,0,1.32,1.38C459.88,335.38,467.62,335.36,475.5,335.36Z"/><path class="cls-2" d="M380.81,397h19.8v-82.5c-1.28,1.39-2.43,2.52-3.46,3.75-5.36,6.44-10.66,12.93-16.09,19.31a4.34,4.34,0,0,1-2.92,1.32c-7.24.11-14.48.1-21.72,0a3.84,3.84,0,0,1-2.48-1.11c-1-1-.54-2.27.27-3.31,3.92-5,7.87-10,11.77-15,3.18-4.07,6.28-8.21,9.49-12.26a2.33,2.33,0,0,1,1.92-.74c.92.25,2.43.95,2.45,1.49.18,5.54.11,11.08.11,16.76-.85.06-1.49.08-2.12.16-1.6.21-2.23-.37-2.15-2.06a39.73,39.73,0,0,0-.44-8.43L359,335.14c.91.1,1.45.22,2,.22,4.9,0,9.8.08,14.7-.05a4.4,4.4,0,0,0,2.91-1.34c4.49-5.24,8.83-10.6,13.26-15.9,3.08-3.68,6.2-7.32,9.3-11,3.69.95,3.69.95,3.69,4.56V396.6c0,3.55-.68,4.23-4.22,4.23h-20.4c-2.71,0-3.57-.83-3.57-3.47,0-14.2,0-28.39,0-42.58,0-1.6.39-2.18,2.07-2.16s2.14.48,2.13,2.13c-.06,13.17,0,26.34,0,39.5Z"/><path class="cls-2" d="M625.68,397h19.76v-82.6c-1.42,1.63-2.62,2.92-3.74,4.28q-7.69,9.27-15.33,18.58a4.13,4.13,0,0,1-3.55,1.7c-7.16-.07-14.33-.06-21.5,0a2.6,2.6,0,0,1-2.77-1.55c-.64-1.27-.11-2,.58-2.91q7-8.83,13.94-17.69c2.43-3.09,4.91-6.15,7.15-9.37.93-1.33,1.85-1.09,3-.8s1.65,1.09,1.63,2.4c-.08,4.17,0,8.34,0,12.51,0,3.73-.06,3.78-4.1,3.07V314.47l-.55-.22-16.31,20.88c1.07.12,1.62.23,2.16.23,4.9,0,9.81.07,14.7-.05a4.18,4.18,0,0,0,2.75-1.26c6.42-7.52,12.75-15.11,19.09-22.7,1.16-1.38,2.23-2.84,3.33-4.25,3.53.76,3.53.76,3.53,4.18v85.58c0,3.54-.41,4-3.86,4-6.94,0-13.89,0-20.84,0-2.13,0-3.17-1-3.17-3q0-22.05,0-44.11a7.56,7.56,0,0,1,.12-.85h4Z"/><path class="cls-2" d="M478.43,355H433.26c-5,0-5.34-.17-6.05-5a50.91,50.91,0,0,1,2.87-26.79,34.51,34.51,0,0,1,13.57-16.44,21.65,21.65,0,0,1,2-1l1.88,3.27c-15.7,9.83-17.92,24.86-16,41.74,1,.05,1.89.14,2.81.14h43.2c3.34,0,4.58.92,4.79,4.22.61,9.68-.6,18.94-7.15,26.71-1.44,1.71-3.19,3.17-4.77,4.77-.88.88-1.66,1.18-2.44-.1-.64-1-1.6-1.95,0-3.13a24.3,24.3,0,0,0,9.42-15C478.08,364.12,478.05,359.72,478.43,355Z"/><path class="cls-3" d="M180,325a37.35,37.35,0,0,1-6.73,21.44,28.67,28.67,0,0,0-42.14,14.34A37.53,37.53,0,1,1,180,325Z"/><path class="cls-3" d="M186.69,370.75A28.68,28.68,0,0,1,158,399.43a28.18,28.18,0,0,1-3.32-.19,20.93,20.93,0,0,0,.15-2.52,22.26,22.26,0,0,0-22.25-22.26,20.91,20.91,0,0,0-3,.21,28.67,28.67,0,0,1,1.51-13.87,37.6,37.6,0,0,0,42.14-14.34A28.61,28.61,0,0,1,186.69,370.75Z"/><path class="cls-3" d="M154.68,399.24a22.26,22.26,0,1,1-25.08-24.57A28.69,28.69,0,0,0,154.68,399.24Z"/></svg>