<svg xmlns="http://www.w3.org/2000/svg" viewBox="0 0 544.65 131.53"><defs><style>.cls-1{isolation:isolate;font-size:65.64px;font-family:AktivGroteskEx-Bold, Aktiv Grotesk Ex;font-weight:700;}.cls-1,.cls-2{fill:#fff;}</style></defs><title>innodx1951</title><g id="Layer_2" data-name="Layer 2"><g id="Layer_1-2" data-name="Layer 1"><text class="cls-1" transform="translate(148.5 86.22)">x</text><path class="cls-2" d="M445.22,38.75c-.46,2.8-.83,5.15-1.25,7.49-.23,1.28.3,1.72,1.54,1.67a38.17,38.17,0,0,1,17.79,3.5c6.68,3.1,12.44,7.18,15.69,14.18,2.41,5.2,4.13,10.47,4.18,16.3a32.21,32.21,0,0,1-5.94,18.65,46.9,46.9,0,0,1-13.73,13l-1.82-3.19c3.26-3,6.57-5.67,9.4-8.77,5-5.42,7.86-11.67,7.88-19.31a30.58,30.58,0,0,0-6.33-19.09c-3.35-4.4-8.22-7.16-13.47-9a50.83,50.83,0,0,0-16.67-2.72c-2.24,0-3.13-1.57-2.68-4.41s.91-5.86,1.29-8.79c.3-2.35,1.1-3.16,3.49-3.17h30.57c.41-4.41.8-8.64,1.22-13.11-.71-.05-1.4-.15-2.09-.15H430.61c-1.95,0-2.55.68-2.85,2.59-.86,5.49-2.05,10.93-3.06,16.41q-1.72,9.39-3.37,18.8a13.35,13.35,0,0,0,0,2h13a28.64,28.64,0,0,1,17,5.41C457.19,71.18,460,77,461,83.91a25.94,25.94,0,0,1-6.79,21.7,23.7,23.7,0,0,1-13.81,7.32c-9.31,1.61-17-1.91-23.31-8.19a22.14,22.14,0,0,1-6.51-18.15,2.52,2.52,0,0,1,2.52-2.52h.23c7.1,0,14.2,0,21.29,0,1.64,0,2.63,1,3.39,2.57,1.33,2.79,3.07,5.37,4.54,8.09a2.35,2.35,0,0,1,.08,1.82A13.1,13.1,0,0,1,441,98.77c-3-2-4.63-4.94-5.81-8.06a3.2,3.2,0,0,0-3.68-2.45c-4.75.15-9.51,0-14.27,0h-2.37c-.64,3.32.51,6.12,1.81,8.61,3.91,7.45,10.33,11.7,18.68,12.07,9,.4,15.59-3.91,19.66-12s2.56-18.56-3.9-24.88A22.78,22.78,0,0,0,436,65.67c-5.11-.25-10.24,0-15.36-.07-3.21,0-4.31-1.61-3.7-4.76,1.42-7.32,2.69-14.66,4-22q1.71-9.27,3.48-18.54c.33-1.78,1.66-2.24,3.25-2.25h49.44c3.06,0,3.89,1.35,3.41,4.44-.6,3.86-.94,7.78-1.17,11.68-.22,3.72-.89,4.53-4.53,4.53H445.22Z"/><path class="cls-2" d="M463.46,113.71l-1.94-3.39.08-.07c1-.91,2-1.8,3-2.67a83,83,0,0,0,6.42-6.09c5.26-5.7,7.83-12,7.84-19.22a30.52,30.52,0,0,0-6.3-19c-3-3.91-7.36-6.84-13.41-9a51.1,51.1,0,0,0-16.44-2.71h-.19a2.76,2.76,0,0,1-2.22-.87c-.65-.77-.85-2-.58-3.68.38-2.43.88-5.62,1.29-8.79.31-2.47,1.19-3.27,3.61-3.28h30.46l.38-4.14c.27-2.89.53-5.76.81-8.73l-.6-.05a12.4,12.4,0,0,0-1.35-.09H430.61c-1.81,0-2.42.56-2.73,2.49C427.33,28,426.63,31.54,426,35c-.38,1.91-.77,3.89-1.13,5.85-1.14,6.19-2.27,12.51-3.37,18.8a14.27,14.27,0,0,0,0,1.85h13.1a28.7,28.7,0,0,1,16.85,5.43c5.5,3.89,8.68,9.44,9.7,17a25.89,25.89,0,0,1-6.82,21.8,23.8,23.8,0,0,1-13.88,7.36c-8.56,1.48-16.44-1.29-23.42-8.23a22.1,22.1,0,0,1-6.54-18.25,2.55,2.55,0,0,1,.77-1.85,2.6,2.6,0,0,1,2.11-.77h7.09c4.65,0,9.46,0,14.19,0,1.54,0,2.62.82,3.5,2.64s1.76,3.31,2.7,4.88c.62,1,1.25,2.12,1.84,3.21a2.46,2.46,0,0,1,.09,1.92,12.8,12.8,0,0,1-1.68,2.25l-.07.08-.09-.06c-3.3-2.2-4.86-5.5-5.86-8.12a3.09,3.09,0,0,0-3.54-2.37c-3.41.11-6.86.09-10.21.07l-4.08,0h-2.27c-.58,3.22.53,5.95,1.82,8.43,3.93,7.49,10.35,11.64,18.58,12,8.78.4,15.36-3.62,19.54-11.93C459,88.8,457.33,78.39,451,72.2a22.61,22.61,0,0,0-15-6.41c-3.43-.17-6.93-.13-10.31-.1-1.66,0-3.37,0-5,0a4,4,0,0,1-3.31-1.16c-.68-.82-.84-2-.51-3.75C417.9,55,418.94,49.14,420,43.44c.28-1.54.55-3.08.83-4.63,1.12-6.1,2.29-12.34,3.48-18.54.38-2.09,2.11-2.34,3.37-2.35h49.44a3.76,3.76,0,0,1,3,1c.61.72.77,1.86.5,3.61-.53,3.39-.9,7.1-1.16,11.66-.23,3.87-1,4.65-4.66,4.65H445.33L445,40.74c-.33,2-.61,3.75-.93,5.52a1.4,1.4,0,0,0,.16,1.19,1.54,1.54,0,0,0,1.26.33,38.61,38.61,0,0,1,17.84,3.51c8.06,3.74,12.92,8.13,15.75,14.24s4.15,11.21,4.19,16.35a32.07,32.07,0,0,1-6,18.73,46.72,46.72,0,0,1-13.76,13Zm-1.62-3.34,1.7,3a46.31,46.31,0,0,0,13.59-12.9A31.86,31.86,0,0,0,483,81.89c0-5.11-1.32-10.13-4.16-16.25s-7.63-10.41-15.63-14.12A38.47,38.47,0,0,0,445.52,48a1.75,1.75,0,0,1-1.46-.41,1.63,1.63,0,0,1-.21-1.41c.31-1.76.6-3.5.92-5.51l.33-2v-.13h29.68c3.49,0,4.19-.7,4.41-4.41.26-4.57.64-8.29,1.17-11.69.25-1.67.11-2.75-.45-3.4a3.55,3.55,0,0,0-2.84-.9H427.63c-1.89,0-2.85.68-3.13,2.15-1.18,6.2-2.35,12.43-3.48,18.54-.27,1.54-.55,3.08-.82,4.62-1,5.7-2.06,11.6-3.18,17.38-.31,1.63-.16,2.79.46,3.54a3.82,3.82,0,0,0,3.12,1.07c1.68,0,3.39,0,5,0,3.38,0,6.88-.07,10.32.1A22.94,22.94,0,0,1,451.17,72c6.41,6.27,8.06,16.8,3.92,25s-11,12.46-19.78,12.07c-8.31-.37-14.81-4.56-18.78-12.14-1.33-2.54-2.47-5.35-1.82-8.69l0-.1h2.47l4.09,0c3.33,0,6.79,0,10.18-.07a3.32,3.32,0,0,1,3.8,2.55,15.92,15.92,0,0,0,5.67,7.92,12.78,12.78,0,0,0,1.56-2.11,2.23,2.23,0,0,0-.08-1.7c-.58-1.07-1.22-2.15-1.84-3.19-.93-1.58-1.9-3.22-2.7-4.9s-1.85-2.5-3.28-2.5c-4.73,0-9.54,0-14.19,0h-7.33a2.39,2.39,0,0,0-2.39,2.4,21.87,21.87,0,0,0,6.47,18.06c6.92,6.88,14.73,9.62,23.2,8.15a23.58,23.58,0,0,0,13.74-7.28,25.68,25.68,0,0,0,6.76-21.6c-1-7.45-4.16-12.94-9.6-16.78a28.42,28.42,0,0,0-16.71-5.39H421.21v-.12a16.85,16.85,0,0,1,0-2c1.1-6.3,2.24-12.63,3.38-18.82.36-1.95.75-3.93,1.12-5.85.68-3.45,1.38-7,1.94-10.55.32-2,1-2.7,3-2.7h43.68c.46,0,.93.05,1.38.09l.72.06h.13l0,.13-.82,8.85-.41,4.37H444.59c-2.28,0-3.07.73-3.37,3.06-.41,3.18-.9,6.37-1.29,8.8a4.32,4.32,0,0,0,.53,3.48,2.53,2.53,0,0,0,2,.78h.19a51.28,51.28,0,0,1,16.52,2.73c6.1,2.14,10.52,5.09,13.53,9a30.79,30.79,0,0,1,6.35,19.17c0,7.3-2.6,13.64-7.91,19.39a83.39,83.39,0,0,1-6.43,6.11C463.79,108.61,462.81,109.48,461.84,110.37Z"/><path class="cls-2" d="M370.57,47.9c.53-6.1-1.73-12.36-9.67-16l1.37-3.45c4.68,1.44,8.21,4.24,10.05,8.39a41,41,0,0,1,2.62,10.92c.38,2.7-.89,3.69-3.59,3.7H346.12c-3.54,0-3.75-.18-4.07-3.78a28.37,28.37,0,0,1,4.26-18.53,23.23,23.23,0,0,1,19.52-11A27.53,27.53,0,0,1,384.59,24c6,4.69,9.11,11,10.67,18.29a107.49,107.49,0,0,1,2.26,25.37c-.23,9.6-1.75,19-6.08,27.66-4.71,9.43-12.43,15-22.92,16.66a27.68,27.68,0,0,1-14.15-1.1c-7.19-2.62-11.69-7.72-13.78-15-.67-2.36-1-4.83-1.49-7.56h-8.69c-2.12,0-4.24.07-6.36,0-1.48-.07-2.14.34-2,2,.63,6.91,3.72,12.35,9.59,16.08a29.15,29.15,0,0,0,5.69,2.72c2.09.76,1,2,.78,3.2-.28,1.49-1.18,1-2.15.69-6.88-2.44-12.34-6.51-15.53-13.25a25.33,25.33,0,0,1-2.31-13c.14-1.82,1.46-2.67,3.37-2.66,5.93.05,11.85,0,17.78,0,3.16,0,3.92.86,4.08,4,.3,6,2,11.49,6.69,15.61a17.53,17.53,0,0,0,9.82,4.4c7.26.77,14-.67,19.95-5a28.06,28.06,0,0,0,9.58-13.27A70.77,70.77,0,0,0,393.44,60c-.5-7.57-.94-15.26-3.87-22.44-3.65-8.94-10.25-14.1-19.9-15.25-12.09-1.45-20.76,6.45-23,16.22a47.59,47.59,0,0,0-.82,8,2,2,0,0,0,1.32,1.38C355,47.92,362.69,47.9,370.57,47.9Z"/><path class="cls-2" d="M337.23,113.49a3.14,3.14,0,0,1-1-.24l-.3-.1c-7.52-2.66-12.63-7-15.6-13.31A25.46,25.46,0,0,1,318,86.78c.14-1.77,1.4-2.78,3.47-2.78h0c3.95,0,8,0,11.85,0h5.93c3.17,0,4,.85,4.21,4.12.34,6.81,2.51,11.89,6.64,15.52a17.29,17.29,0,0,0,9.75,4.37c7.56.8,14.25-.89,19.87-5a27.87,27.87,0,0,0,9.53-13.21A70.25,70.25,0,0,0,393.32,60l0-.6c-.48-7.29-1-14.83-3.83-21.81-3.64-8.93-10.31-14-19.79-15.17-12.84-1.54-20.84,7.28-22.87,16.12a47.11,47.11,0,0,0-.81,8,1.88,1.88,0,0,0,1.21,1.27c6.21.05,12.54.05,18.65,0h4.61c.41-5-.94-11.79-9.6-15.76l-.11,0,1.46-3.67.11,0c4.83,1.48,8.33,4.41,10.12,8.45a40.7,40.7,0,0,1,2.63,11,3.39,3.39,0,0,1-.54,2.82,4,4,0,0,1-3.17,1H346.12c-3.6,0-3.87-.25-4.19-3.89a28.56,28.56,0,0,1,4.27-18.61A23.26,23.26,0,0,1,365.83,18a27.66,27.66,0,0,1,18.84,5.91c5.48,4.28,9,10.29,10.71,18.36a107.79,107.79,0,0,1,2.27,25.4c-.27,11.13-2.21,19.93-6.1,27.71-4.71,9.43-12.45,15.06-23,16.73A27.69,27.69,0,0,1,354.33,111c-7.06-2.57-11.72-7.64-13.86-15.08a54.32,54.32,0,0,1-1.16-5.63c-.1-.6-.2-1.21-.31-1.84h-8.59l-2.12,0c-1.39,0-2.83,0-4.24,0a2,2,0,0,0-1.57.36,1.87,1.87,0,0,0-.3,1.5,20.13,20.13,0,0,0,9.53,16,29.44,29.44,0,0,0,5.66,2.71c1.76.64,1.4,1.68,1.08,2.6a7.67,7.67,0,0,0-.22.74,1.37,1.37,0,0,1-.55,1A.88.88,0,0,1,337.23,113.49ZM321.46,84.25c-1.95,0-3.09.9-3.22,2.55a25.27,25.27,0,0,0,2.3,12.93c2.95,6.23,8,10.54,15.46,13.19l.3.1c.49.16.95.32,1.25.14a1.17,1.17,0,0,0,.44-.84,7.42,7.42,0,0,1,.22-.77c.32-.93.6-1.73-.92-2.29a29.44,29.44,0,0,1-5.72-2.73,20.4,20.4,0,0,1-9.64-16.17,2.13,2.13,0,0,1,.37-1.7,2.19,2.19,0,0,1,1.76-.44c1.4,0,2.84,0,4.23,0l2.12,0h8.79l0,.1c.12.67.23,1.32.34,2a50.8,50.8,0,0,0,1.15,5.6,21.27,21.27,0,0,0,13.7,14.92,27.54,27.54,0,0,0,14.09,1.09c10.48-1.66,18.16-7.24,22.83-16.59,3.87-7.75,5.8-16.52,6.07-27.61a107.86,107.86,0,0,0-2.26-25.34c-1.72-8-5.19-14-10.63-18.22a27.44,27.44,0,0,0-18.67-5.85,23,23,0,0,0-19.42,10.94,28.42,28.42,0,0,0-4.25,18.45c.32,3.53.47,3.67,3.95,3.67h25.23a3.8,3.8,0,0,0,3-.93,3.17,3.17,0,0,0,.49-2.63,40.86,40.86,0,0,0-2.62-10.89c-1.74-3.94-5.15-6.81-9.86-8.28l-1.28,3.23c8.76,4.07,10.08,11,9.64,16.08l0,.11h-4.83c-6.13,0-12.46,0-18.68,0h0a2.1,2.1,0,0,1-1.4-1.46v0a47,47,0,0,1,.82-8c2.05-9,10.16-17.88,23.13-16.32,9.59,1.14,16.32,6.3,20,15.33,2.86,7,3.35,14.57,3.84,21.89l0,.59a70.54,70.54,0,0,1-4.06,29.92,28.14,28.14,0,0,1-9.62,13.33,27.82,27.82,0,0,1-20,5.07,17.48,17.48,0,0,1-9.89-4.43c-4.19-3.68-6.39-8.81-6.73-15.7-.16-3.12-.94-3.88-4-3.88h-5.93c-3.88,0-7.9,0-11.85,0Z"/><path class="cls-2" d="M275.88,109.54h19.8V27c-1.28,1.39-2.43,2.52-3.46,3.75-5.36,6.44-10.66,12.93-16.09,19.31a4.4,4.4,0,0,1-2.92,1.32q-10.86.16-21.72,0A3.86,3.86,0,0,1,249,50.31c-1-1-.54-2.27.27-3.31,3.92-5,7.87-10,11.77-15,3.18-4.07,6.28-8.21,9.49-12.26a2.29,2.29,0,0,1,1.92-.74c.92.25,2.43.95,2.45,1.49.18,5.54.11,11.08.11,16.76-.85.06-1.49.08-2.12.16-1.6.21-2.23-.37-2.15-2.06a39.62,39.62,0,0,0-.44-8.43L254.07,47.68c.91.1,1.45.22,2,.22,4.9,0,9.8.08,14.7,0a4.47,4.47,0,0,0,2.91-1.34c4.49-5.24,8.83-10.6,13.26-15.9,3.08-3.68,6.2-7.32,9.3-11,3.69.95,3.69.95,3.69,4.56v85c0,3.55-.68,4.23-4.22,4.23h-20.4c-2.71,0-3.57-.83-3.57-3.47V67.32c0-1.6.39-2.18,2.07-2.16s2.14.48,2.13,2.13c-.06,13.17,0,26.34,0,39.5Z"/><path class="cls-2" d="M295.71,113.49h-20.4c-2.8,0-3.7-.87-3.7-3.59V67.32a2.45,2.45,0,0,1,.49-1.83,2.28,2.28,0,0,1,1.71-.46c1.76,0,2.26.53,2.26,2.26,0,8.78,0,17.7,0,26.33q0,6.59,0,13.17l-.06,2.62h19.55v-82l-1.09,1.15c-.77.8-1.49,1.56-2.15,2.36-1.69,2-3.37,4.06-5.06,6.09-3.59,4.35-7.31,8.85-11,13.22a4.39,4.39,0,0,1-3,1.36c-7,.11-14.07.11-21.73,0a4,4,0,0,1-2.57-1.15c-.89-.88-.79-2.12.26-3.47,1.47-1.87,2.93-3.74,4.4-5.6,2.42-3.08,4.93-6.27,7.37-9.4,1.37-1.75,2.74-3.54,4.06-5.27,1.77-2.3,3.6-4.68,5.43-7a2.48,2.48,0,0,1,2-.79c.9.24,2.54,1,2.56,1.61.15,4.33.13,8.57.12,13.06v3.82H275l-.74.05c-.51,0-.94.06-1.37.11a2.16,2.16,0,0,1-1.8-.34,2.27,2.27,0,0,1-.5-1.85,39.39,39.39,0,0,0-.39-8.12L254.31,47.58l.65.08a8.13,8.13,0,0,0,1.11.11h4.06c3.49,0,7.09,0,10.64-.06a4.23,4.23,0,0,0,2.82-1.3c2.88-3.36,5.74-6.83,8.52-10.18,1.57-1.91,3.15-3.82,4.73-5.71,1.77-2.12,3.59-4.26,5.34-6.32,1.32-1.56,2.65-3.12,4-4.68l.06-.06h.07c3.75,1,3.79,1,3.79,4.69v85C300.06,112.76,299.32,113.49,295.71,113.49Zm-22-48.21a2,2,0,0,0-1.45.39c-.3.29-.42.77-.42,1.65V109.9c0,2.56.81,3.34,3.45,3.34h20.4c3.48,0,4.1-.61,4.1-4.1v-85c0-3.49,0-3.52-3.53-4.42l-3.91,4.62c-1.75,2.06-3.56,4.2-5.33,6.32-1.59,1.89-3.17,3.8-4.74,5.71-2.78,3.35-5.64,6.82-8.52,10.19a4.57,4.57,0,0,1-3,1.38c-3.56.09-7.16.08-10.65.06h-4.06a8.39,8.39,0,0,1-1.14-.11l-.87-.11-.23,0,16.56-21.17,0,.29a39.19,39.19,0,0,1,.44,8.45,2.07,2.07,0,0,0,.42,1.66,1.92,1.92,0,0,0,1.59.27c.44-.05.89-.08,1.4-.11l.62,0V33.54c0-4.49,0-8.72-.12-13,0-.4-1.3-1.09-2.35-1.37a2.22,2.22,0,0,0-1.8.7c-1.82,2.31-3.65,4.69-5.42,7-1.32,1.73-2.7,3.52-4.06,5.26-2.45,3.14-4.95,6.32-7.37,9.4l-4.4,5.6c-.69.88-1.29,2.14-.28,3.15a3.67,3.67,0,0,0,2.4,1.07c7.65.11,14.76.11,21.71,0A4.18,4.18,0,0,0,276,50c3.71-4.36,7.43-8.86,11-13.21l5.05-6.09c.67-.8,1.4-1.57,2.16-2.37.42-.44.86-.9,1.31-1.39l.22-.23v82.94H275.75l.07-2.88q0-6.57,0-13.16c0-8.63,0-17.55,0-26.33,0-1.58-.41-2-2-2Z"/><path class="cls-2" d="M520.75,109.54h19.76V26.94c-1.42,1.63-2.62,2.92-3.74,4.28q-7.69,9.27-15.33,18.58a4.14,4.14,0,0,1-3.55,1.7q-10.74-.11-21.5,0A2.61,2.61,0,0,1,493.62,50c-.64-1.27-.11-2,.58-2.91q7-8.84,13.94-17.69c2.43-3.09,4.91-6.15,7.15-9.37.93-1.33,1.85-1.09,3-.8a2.11,2.11,0,0,1,1.63,2.4c-.08,4.17,0,8.34,0,12.51,0,3.73-.06,3.78-4.1,3.07V27l-.55-.22L499,47.67c1.07.12,1.62.23,2.16.23,4.9,0,9.81.07,14.7,0a4.27,4.27,0,0,0,2.75-1.26c6.42-7.52,12.75-15.11,19.09-22.7,1.16-1.38,2.23-2.84,3.33-4.25,3.53.76,3.53.76,3.53,4.18V109.4c0,3.54-.41,4-3.86,4H519.82c-2.13,0-3.17-1-3.17-3V66.29a6,6,0,0,1,.12-.85h4Z"/><path class="cls-2" d="M540.66,113.52H519.82c-2.19,0-3.29-1-3.29-3.12V66.29a6.42,6.42,0,0,1,.12-.88l0-.1h4.23v.13l0,44h19.52V27.27l-1.25,1.41c-.8.9-1.56,1.75-2.27,2.62-5.12,6.17-10.28,12.42-15.33,18.57a4.24,4.24,0,0,1-3.66,1.75c-6.68-.06-13.71-.06-21.49,0A2.74,2.74,0,0,1,493.5,50c-.68-1.36-.08-2.14.6-3,4.63-5.84,9.32-11.79,13.94-17.69l1.23-1.56c2-2.52,4.06-5.13,5.92-7.81,1-1.39,2-1.14,3.11-.85A2.22,2.22,0,0,1,520,21.58c0,2.78,0,5.6,0,8.33,0,1.4,0,2.79,0,4.18,0,1.89,0,2.83-.54,3.26s-1.53.31-3.7-.07l-.1,0V27.09l-.39-.15L499.2,47.57l.73.09a10.27,10.27,0,0,0,1.19.11h4c3.52,0,7.16,0,10.73-.06a4,4,0,0,0,2.66-1.22c6-7,12-14.26,17.87-21.24l1.21-1.45c.8-.95,1.57-2,2.31-2.93l1-1.32.05-.06H541c3.59.78,3.63.82,3.63,4.31V109.4C544.65,113,544.16,113.52,540.66,113.52Zm-23.79-48a6.49,6.49,0,0,0-.09.74v44.1c0,1.93,1,2.87,3,2.87h20.84c3.35,0,3.74-.4,3.74-3.87V23.82c0-3.3,0-3.32-3.36-4.05l-1,1.26c-.74,1-1.51,2-2.31,2.94l-1.22,1.45c-5.83,7-11.86,14.21-17.88,21.25a4.25,4.25,0,0,1-2.83,1.3c-3.58.09-7.22.07-10.75.06h-4a10.87,10.87,0,0,1-1.23-.11l-.94-.12-.23,0,16.51-21.13.72.29V37.05c2,.35,2.94.49,3.39.11s.45-1.25.45-3.07c0-1.39,0-2.78,0-4.17,0-2.74,0-5.56,0-8.35a2,2,0,0,0-1.53-2.27c-1.17-.3-2-.5-2.87.75-1.86,2.68-3.93,5.29-5.92,7.82l-1.23,1.55c-4.62,5.9-9.31,11.86-13.94,17.69-.66.87-1.18,1.56-.57,2.78a2.48,2.48,0,0,0,2.64,1.48c7.8-.06,14.83-.06,21.52,0a4,4,0,0,0,3.45-1.65c5.06-6.16,10.21-12.41,15.33-18.58.72-.87,1.48-1.72,2.28-2.63l1.47-1.66.22-.25v83.06h-20v-.12l0-44Z"/><path class="cls-2" d="M373.5,67.54H328.33c-5,0-5.34-.17-6.05-5a50.82,50.82,0,0,1,2.87-26.79,34.54,34.54,0,0,1,13.57-16.44,19.63,19.63,0,0,1,2-1l1.88,3.27c-15.7,9.83-17.92,24.86-16,41.74,1,0,1.89.14,2.81.14h43.2c3.34,0,4.58.92,4.79,4.22.61,9.68-.6,18.94-7.15,26.71-1.44,1.71-3.19,3.17-4.77,4.77-.88.88-1.66,1.18-2.44-.1-.64-1-1.6-2,0-3.13a24.3,24.3,0,0,0,9.42-15C373.15,76.66,373.12,72.26,373.5,67.54Z"/><path class="cls-2" d="M364.17,100h-.12a1.64,1.64,0,0,1-1.12-.92l-.22-.34c-.59-.86-1.26-1.84.26-3a24.09,24.09,0,0,0,9.37-14.92,79.46,79.46,0,0,0,.74-8.51c.08-1.53.16-3.12.28-4.73h-45c-5.12,0-5.47-.29-6.17-5.11A51.05,51.05,0,0,1,325,35.7a34.52,34.52,0,0,1,13.62-16.5,21.14,21.14,0,0,1,2-1l.1,0,2,3.47-.1.06c-7.35,4.6-12.11,10.54-14.56,18.16-2,6.34-2.48,13.77-1.4,23.36l.88,0c.62,0,1.21.08,1.82.08h43.2c3.51,0,4.71,1,4.92,4.34.74,11.76-1.48,20-7.18,26.8a40.58,40.58,0,0,1-3.05,3.1c-.57.54-1.17,1.1-1.73,1.67A2.13,2.13,0,0,1,364.17,100Zm-23.5-81.57a20.78,20.78,0,0,0-1.89.94,34.16,34.16,0,0,0-13.51,16.38,50.81,50.81,0,0,0-2.87,26.73c.7,4.71.92,4.89,5.93,4.89h45.31l0,.14c-.13,1.65-.21,3.28-.29,4.86a77.92,77.92,0,0,1-.75,8.54A24.34,24.34,0,0,1,363.11,96c-1.31,1-.8,1.73-.2,2.61l.24.35c.3.5.6.76.93.8s.78-.19,1.31-.72,1.16-1.14,1.74-1.68a39.9,39.9,0,0,0,3-3.08c5.67-6.72,7.86-14.93,7.13-26.63-.21-3.14-1.29-4.1-4.67-4.1h-43.2c-.61,0-1.21,0-1.84-.08l-1-.06h-.1v-.11c-1.1-9.68-.66-17.17,1.39-23.57,2.46-7.64,7.22-13.6,14.56-18.23Z"/><path class="cls-2" d="M75.07,37.54A37.39,37.39,0,0,1,68.34,59,28.66,28.66,0,0,0,26.2,73.32,37.53,37.53,0,1,1,75.07,37.54Z"/><path class="cls-2" d="M81.76,83.29A28.68,28.68,0,0,1,53.08,112h0a30.64,30.64,0,0,1-3.32-.19,21.3,21.3,0,0,0,.15-2.52A22.26,22.26,0,0,0,27.65,87a18.84,18.84,0,0,0-3,.21,28.59,28.59,0,0,1,1.51-13.87A37.61,37.61,0,0,0,68.3,59,28.6,28.6,0,0,1,81.76,83.29Z"/><path class="cls-2" d="M49.75,111.78A22.26,22.26,0,1,1,24.67,87.21,28.71,28.71,0,0,0,49.75,111.78Z"/></g></g></svg>